<svg width="120" height="44" viewBox="0 0 120 44" fill="none" xmlns="http://www.w3.org/2000/svg">
<path d="M0 16.7516V5.4631H8.11556V16.6606C8.11556 17.6013 8.55887 18.1324 9.42994 18.1324C10.2706 18.1324 10.7444 17.6013 10.7444 16.6606V5.4631H18.86V16.7516C18.86 22.0318 15.253 25.3091 9.44534 25.3091C3.59164 25.3091 0 22.062 0 16.7516Z" fill="white"/>
<path d="M23.3079 5.4631H29.0546L34.1746 11.5474V5.4631H42.0762V24.9145H36.3602L31.2095 18.7999V24.9145H23.3079V5.4631Z" fill="white"/>
<path fill-rule="evenodd" clip-rule="evenodd" d="M86.1385 5.06391C79.5053 5.06391 74.966 9.1757 74.966 15.1842C74.966 21.1925 79.5053 25.3043 86.1385 25.3043C92.7716 25.3043 97.3108 21.1925 97.3108 15.1842C97.3108 9.1757 92.7716 5.06391 86.1385 5.06391ZM84.9844 12.5031C83.4551 12.5031 82.2153 13.7365 82.2153 15.258C82.2153 16.7794 83.4551 18.0128 84.9844 18.0128H87.0674C88.5967 18.0128 89.8367 16.7794 89.8367 15.258C89.8367 13.7365 88.5967 12.5031 87.0674 12.5031H84.9844Z" fill="white"/>
<path d="M72.8416 18.1328C72.8416 18.1328 69.6168 18.1328 69.6015 18.1328C67.905 18.1177 66.8045 16.9341 66.8045 15.1894C66.8045 13.4748 67.8898 12.2913 69.5403 12.2458C69.571 12.2458 72.8416 12.2458 72.8416 12.2458V5.06911C72.8416 5.06911 69.4487 5.06911 69.3569 5.06911C62.8767 5.19049 58.4597 9.2719 58.4597 15.1894C58.4597 21.1673 62.9684 25.2792 69.571 25.3095C69.5862 25.3095 72.8569 25.3095 72.8569 25.3095V18.1328H72.8416Z" fill="white"/>
<path d="M54.9906 5.4334H47.0737V24.9608H54.9906V5.4334Z" fill="white"/>
<path d="M39.6638 31.3114H36.2694C34.6413 31.3114 34.0179 31.9648 34.0179 33.684V42.0055C34.0179 43.2435 34.676 43.9656 35.8883 43.9656C37.066 43.9656 37.7588 43.2435 37.7588 42.0055V39.8048H39.4561C42.6081 39.8048 44.4785 38.6014 44.4785 35.7129C44.4785 33.0307 42.6426 31.3114 39.6638 31.3114ZM38.9364 37.1914H37.7588V34.0279H39.0403C40.1834 34.0279 40.8069 34.6469 40.8069 35.7816C40.8069 37.0539 40.1834 37.1914 38.9364 37.1914Z" fill="white"/>
<path d="M56.4081 41.0084H52.2516V33.2026C52.2516 31.9992 51.5935 31.3114 50.4157 31.3114C49.2381 31.3114 48.58 31.9992 48.58 33.2026V42.0744C48.58 43.2435 49.3073 43.9312 50.4851 43.9312H56.4081C57.2741 43.9312 57.8975 43.3122 57.8975 42.4525C57.8975 41.6274 57.2741 41.0084 56.4081 41.0084Z" fill="white"/>
<path d="M71.1434 33.856C70.5198 31.9992 69.654 31.3114 67.9913 31.3114C66.3287 31.3114 65.4281 32.0336 64.8047 33.856L62.3801 40.9396C62.103 41.7305 61.999 42.1432 61.999 42.4869C61.999 43.3466 62.6917 43.9656 63.6962 43.9656C64.6661 43.9656 65.1857 43.4842 65.5666 42.2119L65.8092 41.3866L65.9131 41.0771H69.8272L69.9311 41.3866L70.1735 42.2119C70.5198 43.4498 71.1087 43.9656 72.0786 43.9656C73.1523 43.9656 73.8452 43.3466 73.8452 42.4182C73.8452 42.04 73.7412 41.5929 73.5334 40.974L71.1434 33.856ZM67.9913 34.4406L69.1344 38.4294H66.6405L67.7836 34.4406H67.9913Z" fill="white"/>
<path d="M88.9614 32.8589C88.9614 31.9992 88.2339 31.3114 87.2987 31.3114C86.5713 31.3114 85.9826 31.7241 85.5322 32.5837L83.4886 36.0911H83.3501L81.4104 32.5837C80.96 31.7241 80.4405 31.3458 79.6439 31.3458C78.6047 31.3458 77.9466 31.9992 77.9466 32.962C77.9466 33.3746 78.0851 33.8217 78.4315 34.3718L81.6528 39.1859L81.5836 42.2119C81.5489 43.2435 82.3109 44 83.454 44C84.5624 44 85.3245 43.2778 85.2898 42.2119L85.2205 39.1859L88.3725 34.4406C88.7536 33.7529 88.9614 33.3059 88.9614 32.8589Z" fill="white"/>
<path d="M116.949 20.356L100.947 29.5658C97.567 31.5085 93.4792 29.8434 92.1792 26.5325C96.6995 24.8386 99.5361 20.7252 99.5361 15.3261C99.5361 9.84737 96.6154 5.69268 91.9786 4.04624C93.1723 0.657808 97.2878 -1.13108 100.733 0.783184L116.872 9.78062C121.014 12.0869 121.045 17.989 116.949 20.356Z" fill="#00CE65"/>
</svg>
